:SAMPLES-PER-SECOND 30
:FULLY-SPECIFIED
:DEGREES
181
root  5.79131 36.9073 4.94729 -172.278 1.56244 174.126
RightUpLeg  -15.2239 -6.89533 -31.9564
RightLeg  13.4121 -20.0819 -7.36934
RightFoot  17.5552 -5.9372 23.1965
RightToes  -5.8209e-011 0 -3.6325e-017
Spine  15.0422 -1.20672 -1.34002
Spine1  14.289 -1.69319 0.297442
HEad  -26.9075 5.12607 -4.89824
LeftShoulder1  1.089 -1.20085 -16.4089
LeftArm  18.9798 7.61728 -58.2121
LeftForeArm  109.999 -78.6961 -114.578
LeftHand  -1.25985 -2.35561 19.0381
RightShoulder  0.944755 0.166207 19.4221
RightArm  -8.03458 -8.53174 48.1069
RightForeArm  72.3394 74.3659 129.115
RightHand  -0.845505 0.130478 -17.8083
LeftUpLeg  -22.4614 3.46902 8.21541
LeftLeg  34.768 0.0251049 0.390621
LeftFoot  -14.1618 -0.336606 -17.0048
LeftToes  -3.91115e-011 -2.2622e-010 9.51032e-012
182
root  5.01129 37.0029 5.01315 -174.193 3.10161 173.958
RightUpLeg  -14.2704 -9.4425 -31.8037
RightLeg  14.2286 -19.5601 -6.85329
RightFoot  17.2629 -5.44157 21.5969
RightToes  -5.8209e-011 0 -3.6325e-017
Spine  14.5133 -0.87595 -3.89578
Spine1  16.5918 -2.15662 1.48206
HEad  -26.6007 6.81072 -4.15146
LeftShoulder1  1.11483 -1.43631 -15.7895
LeftArm  20.003 4.45166 -57.8165
LeftForeArm  100.202 -79.3726 -104.523
LeftHand  -1.25603 -1.74104 20.483
RightShoulder  0.918095 0.138944 18.7997
RightArm  -4.39744 -10.2011 51.5161
RightForeArm  76.9445 72.3376 136.589
RightHand  -0.6736 -0.702696 -16.6616
LeftUpLeg  -20.2957 4.24334 6.55325
LeftLeg  35.1141 0.636827 0.854575
LeftFoot  -15.0112 -0.40844 -15.5161
LeftToes  -3.91115e-011 -2.2622e-010 9.51032e-012
183
root  4.35234 37.1756 5.1134 -175.91 4.6631 173.475
RightUpLeg  -14.1149 -11.9957 -31.3641
RightLeg  17.5977 -19.2339 -6.85649
RightFoot  15.1836 -5.22215 22.3618
RightToes  -5.8209e-011 0 -3.6325e-017
Spine  14.4121 -0.646738 -5.79871
Spine1  17.7681 -2.24516 1.43812
HEad  -24.8084 8.11591 -3.04393
LeftShoulder1  1.15311 -1.83284 -14.7318
LeftArm  20.4624 2.266 -58.2007
LeftForeArm  88.1632 -79.6432 -93.6039
LeftHand  -0.920741 -0.0851379 19.506
RightShoulder  0.817545 -0.0972956 17.5126
RightArm  -0.59425 -10.0607 54.8792
RightForeArm  80.3177 70.635 141.271
RightHand  -0.5959 -1.08507 -15.9944
LeftUpLeg  -17.6946 5.07991 4.56777
LeftLeg  33.971 2.48803 2.16735
LeftFoot  -15.793 -0.426481 -13.3184
LeftToes  -3.91115e-011 -2.2622e-010 9.51032e-012
184
root  3.82704 37.4705 5.18038 -176.734 6.64891 173.619
RightUpLeg  -15.2567 -14.2732 -28.6987
RightLeg  21.4099 -15.638 -6.82429
RightFoot  11.445 -4.71418 23.4934
RightToes  -5.8209e-011 0 -3.6325e-017
Spine  14.2866 -0.490941 -6.70085
Spine1  17.6157 -2.0995 1.09952
HEad  -22.4975 9.29576 -2.27711
LeftShoulder1  1.15356 -1.96386 -14.1743
LeftArm  20.216 2.48689 -59.1468
LeftForeArm  84.803 -79.6272 -90.8804
LeftHand  -0.676067 1.22 18.8033
RightShoulder  0.781195 -0.11389 16.4694
RightArm  3.43132 -8.52828 56.4594
RightForeArm  85.2843 69.1081 144.836
RightHand  -0.53185 -1.18816 -14.618
LeftUpLeg  -15.6346 5.48829 3.53433
LeftLeg  31.9764 4.65714 3.49888
LeftFoot  -15.4685 -0.34492 -12.0961
LeftToes  -3.91115e-011 -2.2622e-010 9.51032e-012
185
root  3.43223 37.8493 5.20859 -176.874 9.17986 174.613
RightUpLeg  -17.1628 -13.9199 -24.2226
RightLeg  25.2203 -9.11055 -4.82861
RightFoot  5.71523 -3.72074 24.7514
RightToes  -5.8209e-011 0 -3.6325e-017
Spine  13.7435 -0.289675 -6.5638
Spine1  17.2827 -1.72528 0.888199
HEad  -20.7217 10.6003 -2.16191
LeftShoulder1  1.12247 -1.7885 -14.299
LeftArm  19.5619 4.38897 -60.465
LeftForeArm  90.1954 -79.5951 -95.8246
LeftHand  -0.743361 1.04026 19.7492
RightShoulder  0.769277 -0.0365294 15.5115
RightArm  6.7363 -6.27393 56.9477
RightForeArm  90.8107 67.8889 147.387
RightHand  -0.470371 -1.21013 -12.9925
LeftUpLeg  -14.4039 6.06839 3.82417
LeftLeg  30.5022 6.18076 4.28701
LeftFoot  -13.7173 -0.174777 -12.3848
LeftToes  -3.91115e-011 -2.2622e-010 9.51032e-012
186
root  3.1514 38.2191 5.21681 -176.822 11.4782 175.653
RightUpLeg  -18.7289 -13.8453 -19.199
RightLeg  29.4623 -1.6986 -1.2613
RightFoot  0.0317037 -2.68143 26.4804
RightToes  -5.8209e-011 0 -3.6325e-017
Spine  12.7172 -0.155187 -5.93735
Spine1  17.5242 -1.29242 0.533505
HEad  -19.4522 11.8383 -2.29673
LeftShoulder1  1.09211 -1.5835 -14.5785
LeftArm  18.9008 6.40914 -61.8732
LeftForeArm  96.767 -79.4073 -102.429
LeftHand  -0.947825 -0.0118314 20.393
RightShoulder  0.703282 -0.207816 14.578
RightArm  8.40883 -4.53553 57.6321
RightForeArm  95.7913 67.0962 148.989
RightHand  -0.393587 -1.47531 -11.5352
LeftUpLeg  -13.9522 7.5778 4.49208
LeftLeg  30.2203 7.17004 4.85936
LeftFoot  -11.3283 0.0684386 -13.0594
LeftToes  -3.91115e-011 -2.2622e-010 9.51032e-012
187
root  2.92149 38.4761 5.2299 -176.964 12.5106 176.009
RightUpLeg  -18.9924 -15.577 -15.2577
RightLeg  33.6549 1.51374 0.790906
RightFoot  -3.12067 -2.04381 27.5954
RightToes  -5.8209e-011 0 -3.6325e-017
Spine  11.8298 -0.424713 -5.5645
Spine1  17.7568 -1.40647 0.308038
HEad  -18.1868 12.8172 -2.37408
LeftShoulder1  1.07219 -1.42898 -14.8727
LeftArm  18.1047 8.08733 -62.7637
LeftForeArm  101.428 -79.0175 -108.624
LeftHand  -0.995474 -0.690094 19.0324
RightShoulder  0.607791 -0.582537 14.0133
RightArm  8.35517 -4.15019 58.4388
RightForeArm  101.048 66.6319 150.06
RightHand  -0.289965 -2.01261 -9.72376
LeftUpLeg  -14.51 9.06393 4.59439
LeftLeg  31.4262 7.21469 5.09605
LeftFoot  -8.76801 0.371376 -14.013
LeftToes  -3.91115e-011 -2.2622e-010 9.51032e-012
188
root  2.6802 38.5416 5.26098 -177.588 12.3707 175.911
RightUpLeg  -17.7253 -16.1993 -13.1394
RightLeg  36.0368 -1.16 -1.15988
RightFoot  -4.84171 -1.56473 26.4485
RightToes  -5.8209e-011 0 -3.6325e-017
Spine  11.8285 -1.09798 -5.60554
Spine1  17.2966 -2.31772 0.957888
HEad  -16.9331 13.6906 -2.58299
LeftShoulder1  1.04224 -1.19329 -15.3682
LeftArm  16.9002 9.67646 -62.766
LeftForeArm  106.267 -78.4223 -115.227
LeftHand  -0.937435 -0.898524 17.4086
RightShoulder  0.517494 -0.99959 13.8793
RightArm  7.07207 -4.94661 58.7808
RightForeArm  106.696 66.535 150.654
RightHand  -0.240168 -2.03507 -8.13122
LeftUpLeg  -16.0796 8.86388 4.44647
LeftLeg  34.672 5.6767 4.55495
LeftFoot  -5.69273 0.808625 -15.5996
LeftToes  -3.91115e-011 -2.2622e-010 9.51032e-012
189
root  2.42131 38.3183 5.29754 -178.756 12.4177 175.95
RightUpLeg  -15.7947 -12.3978 -12.2908
RightLeg  36.6736 -6.2404 -5.22498
RightFoot  -7.84118 -0.790595 23.6224
RightToes  -5.8209e-011 0 -3.6325e-017
Spine  12.5222 -1.7245 -5.56347
Spine1  16.5107 -3.35143 2.31123
HEad  -15.9732 14.7564 -3.0567
LeftShoulder1  0.994872 -0.886271 -15.8782
LeftArm  15.2874 10.8871 -62.2033
LeftForeArm  110.309 -77.9201 -119.815
LeftHand  -1.0737 -1.36846 18.4692
RightShoulder  0.411409 -1.52053 14.0244
RightArm  5.08315 -6.47559 58.74
RightForeArm  110.64 67.075 150.255
RightHand  -0.335125 -0.938374 -8.60533
LeftUpLeg  -18.1431 6.978 5.10099
LeftLeg  40.3889 3.90729 3.94981
LeftFoot  -3.04971 1.17147 -15.8931
LeftToes  -3.91115e-011 -2.2622e-010 9.51032e-012
190
root  2.14932 37.7569 5.33298 179.944 14.051 176.149
RightUpLeg  -14.7986 -6.27296 -12.0851
RightLeg  37.4134 -9.08439 -7.65089
RightFoot  -12.8869 0.224259 22.2158
RightToes  -5.8209e-011 0 -3.6325e-017
Spine  12.9121 -1.98203 -5.19301
Spine1  16.1891 -3.68604 3.01539
HEad  -15.3937 16.343 -3.74044
LeftShoulder1  0.940137 -0.607127 -16.1012
LeftArm  13.2447 11.3081 -61.6004
LeftForeArm  109.241 -78.0258 -118.811
LeftHand  -1.4394 -2.06023 22.3999
RightShoulder  0.309 -2.04468 14.6039
RightArm  2.41929 -8.40555 58.7767
RightForeArm  110.597 68.5646 148.015
RightHand  -0.596178 0.664719 -11.4801
LeftUpLeg  -20.0605 4.75117 6.90936
LeftLeg  47.6321 4.16989 5.38051
LeftFoot  -3.08443 0.980232 -13.1716
LeftToes  -3.91115e-011 -2.2622e-010 9.51032e-012
191
root  1.8218 37.1211 5.35354 179.067 17.8091 176.461
RightUpLeg  -15.538 -3.39257 -12.3282
RightLeg  38.6758 -7.09456 -6.3018
RightFoot  -17.6848 1.14334 22.5575
RightToes  -5.8209e-011 0 -3.6325e-017
Spine  12.6742 -1.93537 -4.64836
Spine1  16.5005 -3.32768 2.45258
HEad  -15.3615 18.9556 -4.99903
LeftShoulder1  0.871865 -0.29116 -16.216
LeftArm  10.6331 11.5048 -61.0494
LeftForeArm  101.11 -78.6216 -111.826
LeftHand  -1.83366 -2.3916 27.1749
RightShoulder  0.29028 -2.19055 15.6405
RightArm  -0.946534 -10.0417 59.2127
RightForeArm  105.239 71.4819 141.817
RightHand  -0.95087 2.03576 -15.0194
LeftUpLeg  -20.6402 2.79084 9.6813
LeftLeg  53.2122 6.11444 9.15968
LeftFoot  -5.12119 0.534394 -9.24874
LeftToes  -3.91115e-011 -2.2622e-010 9.51032e-012
192
root  1.40374 36.5764 5.32728 178.62 23.3348 177.237
RightUpLeg  -17.7786 -4.11056 -12.4003
RightLeg  40.9011 -2.26864 -2.37692
RightFoot  -19.9854 1.5478 22.0402
RightToes  -5.8209e-011 0 -3.6325e-017
Spine  12.5221 -1.68383 -4.39743
Spine1  16.9967 -2.93945 2.03407
HEad  -16.1592 23.0073 -7.33257
LeftShoulder1  0.788748 0.118027 -16.5639
LeftArm  7.70692 12.581 -60.4054
LeftForeArm  88.4803 -79.0608 -102.02
LeftHand  -2.18599 -2.44071 31.9022
RightShoulder  0.375282 -1.87848 16.6799
RightArm  -4.11879 -10.5507 60.1051
RightForeArm  90.353 75.8635 125.043
RightHand  -1.37319 3.39022 -18.2641
LeftUpLeg  -19.1043 0.7441 13.2835
LeftLeg  55.4051 7.06235 11.3445
LeftFoot  -7.34648 0.292015 -7.20969
LeftToes  -3.91115e-011 -2.2622e-010 9.51032e-012
193
root  0.945341 36.1099 5.2443 178.285 29.4106 178.389
RightUpLeg  -20.3455 -3.92242 -11.9575
RightLeg  43.6189 1.28936 0.997601
RightFoot  -20.128 1.44842 20.4288
RightToes  -5.8209e-011 0 -3.6325e-017
Spine  12.8124 -1.19312 -5.62155
Spine1  17.5874 -3.12376 3.3637
HEad  -17.5194 28.128 -10.1658
LeftShoulder1  0.719573 0.480193 -17.1018
LeftArm  5.56586 14.7008 -59.6466
LeftForeArm  74.5121 -79.0807 -92.6898
LeftHand  -2.54732 -2.47858 36.6632
RightShoulder  0.491006 -1.4614 17.6654
RightArm  -6.05494 -10.1543 61.0177
RightForeArm  55.9303 78.5021 86.5308
RightHand  -2.02305 5.17364 -22.1993
LeftUpLeg  -15.7398 -1.77644 16.9093
LeftLeg  54.5244 6.38248 10.0391
LeftFoot  -9.07876 0.186056 -6.63308
LeftToes  -3.91115e-011 -2.2622e-010 9.51032e-012
